:SAMPLES-PER-SECOND 30
:FULLY-SPECIFIED
:DEGREES
1
root  76.0366 40.3772 1.23474 -167.818 -85.6106 166.499
RightUpLeg  -0.725465 -8.05062 -3.47546
RightLeg  6.19295 -8.53038 3.85521
RightFoot  -3.84246 0.191576 -3.33605
RightToes  0.00048216 0.542163 -0.142577
Spine  2.8615 0.290087 -2.40811
Spine1  0.244328 -0.121047 2.64683
HEad  2.6569 -4.67819 1.19793
LeftShoulder1  1.16632 -2.44458 -12.4549
LeftArm  -22.6023 15.0023 -14.3766
LeftForeArm  13.2914 -1.24671 0.817065
LeftHand  -0.25398 0.0180481 5.50724
RightShoulder  0.60325 -0.0964955 10.4612
RightArm  -25.3293 -10.1742 6.3802
RightForeArm  5.21932 3.53831 0.776744
RightHand  -0.478531 -0.218815 -10.7315
LeftUpLeg  -1.37694 4.48797 0.677043
LeftLeg  5.10037 13.6378 -2.95437
LeftFoot  -3.3093 -0.135154 2.35276
LeftToes  1.06245e-005 4.65855e-005 -8.18504e-006
2
root  76.0335 40.3772 1.24812 -167.727 -85.5742 166.34
RightUpLeg  -0.647107 -8.08846 -3.53605
RightLeg  6.19616 -8.45743 3.86848
RightFoot  -3.85679 0.190192 -3.31448
RightToes  0.00048216 0.542163 -0.142577
Spine  3.32791 0.370393 -2.63352
Spine1  -0.396558 -0.0951009 2.96914
HEad  2.86221 -4.65795 1.13473
LeftShoulder1  1.18746 -2.51518 -12.59
LeftArm  -22.3306 15.2887 -14.2372
LeftForeArm  13.2583 -1.48116 0.696633
LeftHand  -0.25398 0.0180481 5.50724
RightShoulder  0.562752 -0.276433 10.1605
RightArm  -25.2956 -10.2719 6.53165
RightForeArm  5.47395 3.65509 0.788743
RightHand  -0.467033 -0.29853 -10.6259
LeftUpLeg  -1.27943 4.47858 0.65242
LeftLeg  5.06991 13.6551 -2.98298
LeftFoot  -3.32542 -0.138022 2.39738
LeftToes  1.06245e-005 4.65855e-005 -8.18504e-006
3
root  76.0264 40.3772 1.27908 -167.451 -85.5731 165.976
RightUpLeg  -0.548375 -8.15102 -3.63951
RightLeg  6.21434 -8.3854 3.87268
RightFoot  -3.87778 0.186484 -3.25871
RightToes  0.00048216 0.542163 -0.142577
Spine  3.69636 0.380722 -2.83081
Spine1  -0.915132 -0.139107 3.29297
HEad  2.99569 -4.67139 0.998208
LeftShoulder1  1.19396 -2.48768 -12.8082
LeftArm  -21.9542 15.612 -14.0353
LeftForeArm  13.0289 -1.78879 0.518938
LeftHand  -0.25398 0.0180481 5.50724
RightShoulder  0.524914 -0.419006 9.69728
RightArm  -25.4348 -10.3186 6.84786
RightForeArm  5.99598 3.70328 0.73311
RightHand  -0.452782 -0.340296 -10.3822
LeftUpLeg  -1.16181 4.43766 0.58256
LeftLeg  5.04302 13.6899 -2.99346
LeftFoot  -3.36149 -0.13872 2.40824
LeftToes  1.06245e-005 4.65855e-005 -8.18504e-006
4
root  76.0216 40.3768 1.31248 -167.297 -85.608 165.8
RightUpLeg  -0.535649 -8.19402 -3.70907
RightLeg  6.26177 -8.36231 3.86321
RightFoot  -3.8877 0.181672 -3.19268
RightToes  0.00048216 0.542163 -0.142577
Spine  3.43749 0.276603 -2.72619
Spine1  -0.593421 -0.22542 3.18374
HEad  2.94145 -4.55674 0.863362
LeftShoulder1  1.15789 -2.28741 -12.8739
LeftArm  -21.8387 15.587 -13.9912
LeftForeArm  12.8468 -1.87621 0.4449
LeftHand  -0.25398 0.0180481 5.50724
RightShoulder  0.535485 -0.335705 9.56639
RightArm  -25.7407 -10.2371 7.02385
RightForeArm  6.51711 3.56526 0.602237
RightHand  -0.468162 -0.0636069 -10.214
LeftUpLeg  -1.14776 4.41663 0.517878
LeftLeg  5.07125 13.7058 -2.97439
LeftFoot  -3.41175 -0.136058 2.36682
LeftToes  1.06245e-005 4.65855e-005 -8.18504e-006
5
root  76.0242 40.3751 1.33545 -167.455 -85.6233 165.973
RightUpLeg  -0.577595 -8.2045 -3.72528
RightLeg  6.30326 -8.35523 3.85385
RightFoot  -3.88709 0.178387 -3.15021
RightToes  0.00048216 0.542163 -0.142577
Spine  2.90316 0.186855 -2.4601
Spine1  0.136573 -0.24323 2.76329
HEad  2.73917 -4.30367 0.906991
LeftShoulder1  1.10669 -2.07128 -12.711
LeftArm  -22.0128 15.2857 -14.1413
LeftForeArm  12.9545 -1.747 0.500332
LeftHand  -0.25398 0.0180481 5.50724
RightShoulder  0.565681 -0.21258 9.88745
RightArm  -25.9338 -10.0956 6.90879
RightForeArm  6.85218 3.4326 0.514773
RightHand  -0.513218 0.4808 -10.2197
LeftUpLeg  -1.19837 4.46299 0.504554
LeftLeg  5.13382 13.6765 -2.97263
LeftFoot  -3.45318 -0.135378 2.35625
LeftToes  1.06245e-005 4.65855e-005 -8.18504e-006
6
root  76.0313 40.3737 1.35131 -167.573 -85.6236 166.07
RightUpLeg  -0.580506 -8.20552 -3.73828
RightLeg  6.32768 -8.3488 3.83896
RightFoot  -3.89298 0.175823 -3.11735
RightToes  0.00048216 0.542163 -0.142577
Spine  2.65036 0.193725 -2.34394
Spine1  0.546547 -0.184857 2.48078
HEad  2.44319 -4.23922 1.15163
LeftShoulder1  1.09397 -2.05805 -12.5123
LeftArm  -22.2222 15.0531 -14.2931
LeftForeArm  13.1481 -1.55255 0.595663
LeftHand  -0.25398 0.0180481 5.50724
RightShoulder  0.570865 -0.253993 10.3083
RightArm  -25.8506 -9.99503 6.67529
RightForeArm  6.76143 3.46845 0.557414
RightHand  -0.54317 0.762924 -10.3484
LeftUpLeg  -1.19916 4.52272 0.50657
LeftLeg  5.16571 13.6295 -3.00108
LeftFoot  -3.45609 -0.139636 2.42248
LeftToes  1.06245e-005 4.65855e-005 -8.18504e-006
7
root  76.0365 40.3726 1.36962 -167.278 -85.6561 165.723
RightUpLeg  -0.551842 -8.22095 -3.78496
RightLeg  6.37176 -8.36554 3.80629
RightFoot  -3.91777 0.171414 -3.05471
RightToes  0.00048216 0.542163 -0.142577
Spine  2.70201 0.232875 -2.44341
Spine1  0.516283 -0.146976 2.50338
HEad  2.23962 -4.57051 1.32017
LeftShoulder1  1.12984 -2.25278 -12.4707
LeftArm  -22.2713 15.0522 -14.2847
LeftForeArm  13.1224 -1.37766 0.651133
LeftHand  -0.25398 0.0180481 5.50724
RightShoulder  0.565 -0.319376 10.5022
RightArm  -25.612 -10.0235 6.51692
RightForeArm  6.03668 3.55999 0.674597
RightHand  -0.524336 0.386754 -10.6037
LeftUpLeg  -1.14918 4.50582 0.459797
LeftLeg  5.15066 13.6145 -3.01141
LeftFoot  -3.42596 -0.145177 2.50867
LeftToes  1.06245e-005 4.65855e-005 -8.18504e-006
8
root  76.0383 40.3718 1.38936 -166.857 -85.723 165.289
RightUpLeg  -0.563776 -8.24285 -3.8308
RightLeg  6.43683 -8.41261 3.77278
RightFoot  -3.94945 0.166543 -2.9845
RightToes  0.00048216 0.542163 -0.142577
Spine  2.71786 0.208623 -2.54002
Spine1  0.404933 -0.180173 2.56782
HEad  2.33936 -4.96338 1.18128
LeftShoulder1  1.16527 -2.42263 -12.5152
LeftArm  -22.2158 15.1668 -14.192
LeftForeArm  12.9911 -1.27709 0.664231
LeftHand  -0.25398 0.0180481 5.50724
RightShoulder  0.593247 -0.160866 10.5085
RightArm  -25.4065 -10.2052 6.43989
RightForeArm  5.01281 3.55394 0.76141
RightHand  -0.481645 -0.293444 -10.9482
LeftUpLeg  -1.14571 4.429 0.383283
LeftLeg  5.14054 13.6238 -2.97452
LeftFoot  -3.40841 -0.147836 2.55005
LeftToes  1.06245e-005 4.65855e-005 -8.18504e-006
9
root  76.0395 40.371 1.40473 -166.894 -85.7815 165.341
RightUpLeg  -0.586026 -8.25183 -3.8367
RightLeg  6.4602 -8.45506 3.76797
RightFoot  -3.96344 0.165131 -2.96841
RightToes  0.00048216 0.542163 -0.142577
Spine  2.6094 0.109572 -2.43849
Spine1  0.411149 -0.243845 2.37741
HEad  2.63869 -4.92647 0.942801
LeftShoulder1  1.15377 -2.39724 -12.3922
LeftArm  -22.225 15.3008 -14.2388
LeftForeArm  13.066 -1.3383 0.672016
LeftHand  -0.25398 0.0180481 5.50724
RightShoulder  0.647664 0.139977 10.541
RightArm  -25.3292 -10.4157 6.40647
RightForeArm  4.52888 3.49585 0.774019
RightHand  -0.460848 -0.59764 -11.0958
LeftUpLeg  -1.18649 4.38797 0.351899
LeftLeg  5.16623 13.6092 -2.93005
LeftFoot  -3.43088 -0.148454 2.55966
LeftToes  1.06245e-005 4.65855e-005 -8.18504e-006
10
root  76.0406 40.37 1.42069 -167.344 -85.798 165.747
RightUpLeg  -0.523457 -8.26348 -3.84367
RightLeg  6.43251 -8.4345 3.79223
RightFoot  -3.96044 0.166327 -2.99383
RightToes  0.00048216 0.542163 -0.142577
Spine  2.57696 -0.00244029 -2.14848
Spine1  0.451572 -0.27325 1.9155
HEad  2.76292 -4.49406 0.982752
LeftShoulder1  1.10882 -2.26994 -12.0077
LeftArm  -22.3524 15.4818 -14.5135
LeftForeArm  13.3167 -1.53766 0.695811
LeftHand  -0.25398 0.0180481 5.50724
RightShoulder  0.678263 0.284075 10.6898
RightArm  -25.4367 -10.4501 6.43853
RightForeArm  5.01859 3.45348 0.708301
RightHand  -0.472623 -0.33555 -10.832
LeftUpLeg  -1.15164 4.39807 0.362499
LeftLeg  5.18943 13.5924 -2.91766
LeftFoot  -3.46807 -0.149205 2.57134
LeftToes  1.06245e-005 4.65855e-005 -8.18504e-006
11
root  76.0421 40.3684 1.44705 -167.605 -85.7588 165.887
RightUpLeg  -0.404922 -8.31861 -3.92174
RightLeg  6.44727 -8.31105 3.82523
RightFoot  -3.97363 0.165418 -2.98794
RightToes  0.00048216 0.542163 -0.142577
Spine  2.68311 -0.0672182 -1.80797
Spine1  0.469816 -0.244952 1.40125
HEad  2.52369 -4.16708 1.29542
LeftShoulder1  1.07724 -2.21446 -11.6042
LeftArm  -22.4965 15.6694 -14.8355
LeftForeArm  13.4581 -1.69973 0.725977
LeftHand  -0.25398 0.0180481 5.50724
RightShoulder  0.670974 0.211919 10.8568
RightArm  -25.7069 -10.2965 6.52858
RightForeArm  6.00324 3.38439 0.580407
RightHand  -0.496509 0.173216 -10.3989
LeftUpLeg  -1.01382 4.37735 0.328868
LeftLeg  5.17847 13.6656 -2.91153
LeftFoot  -3.49247 -0.149249 2.57202
LeftToes  1.06245e-005 4.65855e-005 -8.18504e-006
12
root  76.0457 40.3658 1.48084 -167.524 -85.6697 165.704
RightUpLeg  -0.361255 -8.41201 -4.05072
RightLeg  6.55718 -8.11824 3.85578
RightFoot  -4.0177 0.162205 -2.94828
RightToes  0.00048216 0.542163 -0.142577
Spine  2.75662 -0.0711027 -1.55361
Spine1  0.540395 -0.190378 1.08825
HEad  2.06385 -4.22781 1.5411
LeftShoulder1  1.07486 -2.22883 -11.5065
LeftArm  -22.5434 15.7333 -14.9619
LeftForeArm  13.3967 -1.73327 0.734753
LeftHand  -0.25398 0.0180481 5.50724
RightShoulder  0.65684 0.129992 10.8762
RightArm  -25.9237 -10.1928 6.61845
RightForeArm  6.68242 3.32932 0.47996
RightHand  -0.518382 0.581747 -10.1587
LeftUpLeg  -0.903831 4.29977 0.225985
LeftLeg  5.17281 13.8443 -2.87002
LeftFoot  -3.52092 -0.147998 2.55257
LeftToes  1.06245e-005 4.65855e-005 -8.18504e-006
